:SAMPLES-PER-SECOND 30
:FULLY-SPECIFIED
:DEGREES
53
root  35.01931138 36.53904772 -14.57976544 10.1082325 0.808458209 2.797032595
lowerback  -8.421719551 0.7365569472 0.9621447921
upperback  -3.618779898 0.6037790179 -2.99567008
thorax  1.019260049 0.1222319975 -3.586800098
lowerneck  -14.83500004 3.463059902 2.936719894
upperneck  11.88990021 3.32303977 3.984270096
head  6.023980141 2.022749901 1.10134995
lclavicle  0 -4.497500157e-015 -2.743230041e-014
lhumerus  -44.57329941 26.82449913 69.59619904
lradius  -0.4803746939 -6.507048965e-006 28.3491993
lwrist  4.824992743e-007 -3.790274832e-007 -28.87450027
lhand  -3.517268817e-031 -36.80120087 -10.67949963
lfingers  90 7.125020027 -90
lthumb  94.77070618 -25.51869392 100.963768
rclavicle  0 -4.497500157e-015 -2.743230041e-014
rhumerus  -27.35090065 -0.4392251968 -79.01850128
rradius  -5.16745672e-007 2.214343908e-008 82.07409668
rwrist  1.129822067e-006 0.001802438172 -170.673996
rhand  -2.99659963e-031 -0.973976016 -8.001350403
rfingers  -90 -7.125020027 -90
rthumb  -86.40371704 -7.780956745 -65.09815216
rfemur  -12.41464424 14.86238384 13.57133675
rtibia  -0.4983151853 0.7408659458 19.91785431
rfoot  -0.1220424399 -18.90488243 -39.5566864
rtoes  4.123615742 19.60341835 -102.1368027
lfemur  -9.782369614 -16.9340229 -18.63039398
ltibia  2.333792686 1.388440251 14.81664753
lfoot  0.3994818926 -28.0673275 33.47354126
ltoes  -8.663450241 -18.09587479 -116.1302567
54
root  35.01595625 36.53912582 -14.57349071 10.10634232 0.8566327691 2.776187897
lowerback  -8.442040443 0.7549561262 0.9533775449
upperback  -3.62789011 0.6272600293 -3.011159897
thorax  1.022729993 0.1330610067 -3.595789909
lowerneck  -14.76860046 3.470069885 2.844949961
upperneck  11.76029968 3.332749844 4.149340153
head  5.967199802 2.032510042 1.165839911
lclavicle  0 -4.497500157e-015 -2.743230041e-014
lhumerus  -44.63270187 26.91360092 69.52999878
lradius  -0.48102808 -6.507048965e-006 28.31419945
lwrist  4.824992743e-007 -3.790274832e-007 -29.09189987
lhand  -3.519678794e-031 -36.79790115 -10.65089989
lfingers  90 7.125020027 -90
lthumb  94.76314545 -25.49078369 100.9576492
rclavicle  0 -4.497500157e-015 -2.743230041e-014
rhumerus  -26.1291008 0.1767256707 -78.92559814
rradius  -5.16745672e-007 2.214343908e-008 83.08190155
rwrist  1.129822067e-006 0.001802438172 -170.9660034
rhand  -2.996638483e-031 -1.12548995 -8.000379562
rfingers  -90 -7.125020027 -90
rthumb  -86.43148804 -7.772974491 -65.24559021
rfemur  -12.3760128 14.86864662 13.59928894
rtibia  -0.4758334458 0.7847583294 19.87738228
rfoot  -0.09187963605 -18.834692 -39.54978943
rtoes  4.099619865 19.6024971 -102.0652313
lfemur  -9.765987396 -16.96088219 -18.60250664
ltibia  2.332829237 1.393335342 14.80104828
lfoot  0.3777856529 -28.05874443 33.43785095
ltoes  -8.63785553 -18.10778809 -116.0478745
55
root  35.02018846 36.53936311 -14.56822974 10.12612247 0.8182145357 2.767792463
lowerback  -8.455550194 0.7913200259 0.92503196
upperback  -3.617460012 0.6783210039 -3.030770063
thorax  1.04437995 0.1589519978 -3.595360041
lowerneck  -14.69499969 3.480249882 2.769750118
upperneck  11.61190033 3.342210054 4.324329853
head  5.903576851 2.043988943 1.230103374
lclavicle  0 -4.497500157e-015 -2.743230041e-014
lhumerus  -44.65530014 27.05010033 69.3792038
lradius  -0.4816625118 -6.507048965e-006 28.24409866
lwrist  4.824992743e-007 -3.790274832e-007 -29.37709999
lhand  -3.521298449e-031 -36.77629852 -10.63440037
lfingers  90 7.125020027 -90
lthumb  94.74954987 -25.47533226 100.9330368
rclavicle  0 -4.497500157e-015 -2.743230041e-014
rhumerus  -24.81340027 0.7716123462 -78.76889801
rradius  -5.16745672e-007 2.214343908e-008 84.04509735
rwrist  1.129822067e-006 0.001802438172 -171.1959991
rhand  -3.001110987e-031 -0.628271997 -7.93460989
rfingers  -90 -7.125020027 -90
rthumb  -86.31026459 -7.861626148 -64.75788116
rfemur  -12.36368752 14.86178875 13.58165264
rtibia  -0.4540787637 0.7401643991 19.8161602
rfoot  -0.08005926013 -18.91587257 -39.54079056
rtoes  4.076646805 19.60139847 -101.996727
lfemur  -9.772050858 -16.97425652 -18.60452271
ltibia  2.328941107 1.373250604 14.80129528
lfoot  0.3713920414 -28.01047897 33.45977783
ltoes  -8.644385338 -18.10475349 -116.0688934
56
root  35.02166328 36.53985572 -14.56311143 10.11251545 0.8584601283 2.752096891
lowerback  -8.502289772 0.8037409782 0.8915087581
upperback  -3.628190041 0.6950790286 -3.036629915
thorax  1.059870005 0.1665170044 -3.580820084
lowerneck  -14.66469955 3.489310026 2.763119936
upperneck  11.54179955 3.351979971 4.372680187
head  5.875239849 2.049069881 1.245710015
lclavicle  0 -4.497500157e-015 -2.743230041e-014
lhumerus  -44.65480042 27.02960014 69.35369873
lradius  -0.4822719991 -6.507048965e-006 28.20140076
lwrist  4.824992743e-007 -3.790274832e-007 -29.38480186
lhand  -3.521497843e-031 -36.79550171 -10.62930012
lfingers  90 7.125020027 -90
lthumb  94.75746918 -25.46967125 100.9531174
rclavicle  0 -4.497500157e-015 -2.743230041e-014
rhumerus  -23.55130005 1.537139177 -78.52680206
rradius  -5.16745672e-007 2.214343908e-008 85.02610016
rwrist  1.129822067e-006 0.001802438172 -171.7539978
rhand  -2.993894394e-031 0.09148520231 -8.04294014
rfingers  -90 -7.125020027 -90
rthumb  -86.22021484 -7.807151794 -64.06398773
rfemur  -12.29048824 14.84991455 13.59285927
rtibia  -0.4269181788 0.7402507067 19.7305069
rfoot  -0.05909116939 -18.91220474 -39.58094788
rtoes  4.073876858 19.60027885 -101.988472
lfemur  -9.780875206 -16.93763542 -18.57946587
ltibia  2.308960438 1.386510134 14.84125519
lfoot  0.3585593104 -28.06280518 33.37765884
ltoes  -8.63785553 -18.10873222 -116.0478745
57
root  35.02309904 36.54070576 -14.5574029 10.1152792 0.8789343834 2.745118856
lowerback  -8.534520149 0.8228939772 0.8850174546
upperback  -3.632450104 0.7201960087 -3.039010048
thorax  1.074910045 0.1787640005 -3.577189922
lowerneck  -14.63619995 3.494410038 2.780639887
upperneck  11.47019958 3.359770298 4.372200012
head  5.84803009 2.051939011 1.241770029
lclavicle  0 -4.497500157e-015 -2.743230041e-014
lhumerus  -44.66260147 27.07159996 69.31809998
lradius  -0.4828507602 -6.507048965e-006 28.1495018
lwrist  4.824992743e-007 -3.790274832e-007 -29.46999931
lhand  -3.508883719e-031 -36.79800034 -10.78110027
lfingers  90 7.125020027 -90
lthumb  94.79064941 -25.61859512 100.9696274
rclavicle  0 -4.497500157e-015 -2.743230041e-014
rhumerus  -22.1928997 2.216659784 -78.30860138
rradius  -5.16745672e-007 2.214343908e-008 85.92359924
rwrist  1.129822067e-006 0.001802438172 -172.0079956
rhand  -2.993287135e-031 0.2505649924 -8.051950455
rfingers  -90 -7.125020027 -90
rthumb  -86.19358063 -7.808848858 -63.90981293
rfemur  -12.25873852 14.80592918 13.59978199
rtibia  -0.4115519226 0.7421547174 19.68705559
rfoot  -0.03727199882 -18.90562057 -39.55443573
rtoes  4.09564352 19.59925652 -102.0533752
lfemur  -9.770507813 -16.94176865 -18.57266426
ltibia  2.316759109 1.404959559 14.82594013
lfoot  0.3616184294 -28.09388924 33.37505341
ltoes  -8.630516052 -18.11119652 -116.0242691
58
root  35.02445672 36.54254703 -14.54822811 10.15511417 0.910564661 2.754590511
lowerback  -8.496821404 0.8333268762 0.8765268326
upperback  -3.624660015 0.7364599705 -3.041790009
thorax  1.063230038 0.1876499951 -3.573810101
lowerneck  -14.71780014 3.504970074 2.882390022
upperneck  11.49260044 3.356309891 4.313930035
head  5.871846199 2.053182364 1.208901882
lclavicle  0 -4.497500157e-015 -2.743230041e-014
lhumerus  -44.66086578 27.12926292 69.26280975
lradius  -0.4833926857 -6.507048965e-006 28.11619949
lwrist  4.824992743e-007 -3.790274832e-007 -29.57719994
lhand  -3.505360349e-031 -36.78689957 -10.82520008
lfingers  90 7.125020027 -90
lthumb  94.79470825 -25.6622982 100.961731
rclavicle  0 -4.497500157e-015 -2.743230041e-014
rhumerus  -20.75149918 2.814399719 -78.13670349
rradius  -5.16745672e-007 2.214343908e-008 86.74019623
rwrist  1.129822067e-006 0.001802438172 -172.2160034
rhand  -3.002854864e-031 -0.004618879873 -7.909029961
rfingers  -90 -7.125020027 -90
rthumb  -86.17970276 -7.921839237 -64.14948273
rfemur  -12.28803253 14.77353668 13.58409595
rtibia  -0.4070976973 0.7643735409 19.69526482
rfoot  -0.02399525233 -18.85204315 -39.51203537
rtoes  4.118753433 19.59823227 -102.1222992
lfemur  -9.731683731 -16.95180702 -18.61148643
ltibia  2.374794722 1.417578459 14.71690273
lfoot  0.3425376117 -28.05842209 33.33990479
ltoes  -8.65010643 -18.10209274 -116.0873032
